<svg version="1.1" id="Layer_1" xmlns="http://www.w3.org/2000/svg" xmlns:xlink="http://www.w3.org/1999/xlink" x="0px" y="0px"
	 width="100%" viewBox="0 0 1080 1080" enable-background="new 0 0 1080 1080" xml:space="preserve">
<path fill="#FF6600" opacity="1.000000" stroke="none" 
	d="
M657.000000,1081.000000 
	C438.025208,1081.000000 219.550430,1081.000000 1.037821,1081.000000 
	C1.037821,721.066772 1.037821,361.133514 1.037821,1.100134 
	C360.891663,1.100134 720.783325,1.100134 1080.837524,1.100134 
	C1080.837524,360.999939 1080.837524,720.999939 1080.837524,1081.000000 
	C939.799744,1081.000000 798.649841,1081.000000 657.000000,1081.000000 
M353.131042,165.950897 
	C353.124298,415.279327 353.117126,664.607788 353.123077,913.936218 
	C353.123108,915.220459 353.308136,916.504761 353.404968,917.765503 
	C419.579529,917.765503 485.455658,917.765503 551.949951,917.765503 
	C551.949951,818.824463 551.949951,720.283142 551.949951,621.702148 
	C644.866821,621.702148 737.163757,621.702148 830.133301,621.702148 
	C830.133301,720.891724 830.133301,819.888611 830.133301,918.177734 
	C896.670776,918.177734 962.540894,918.177734 1028.417969,918.177734 
	C1028.417969,666.343689 1028.417969,415.287903 1028.417969,164.310547 
	C962.127197,164.310547 896.206421,164.310547 829.870117,164.310547 
	C829.870117,263.205322 829.870117,361.790344 829.870117,460.603455 
	C737.041992,460.603455 644.630554,460.603455 551.601807,460.603455 
	C551.601807,361.686249 551.601807,262.968658 551.601807,164.000000 
	C549.160706,164.000000 547.336182,164.000000 545.511719,164.000000 
	C494.845886,164.000000 444.180054,163.989059 393.514221,164.007477 
	C380.351379,164.012268 367.188568,164.108826 353.499390,164.123840 
	C353.413055,164.423279 353.326721,164.722702 353.131042,165.950897 
M53.292931,581.499817 
	C53.292931,693.587158 53.292931,805.674438 53.292931,917.784668 
	C119.774620,917.784668 185.650421,917.784668 251.577148,917.784668 
	C251.577148,666.392517 251.577148,415.382690 251.577148,164.344681 
	C185.403488,164.344681 119.531364,164.344681 53.292942,164.344681 
	C53.292942,303.292603 53.292942,441.896179 53.292931,581.499817 
z"/>
<path fill="#FFFFFF" opacity="1.000000" stroke="none" 
	d="
M354.025757,164.163254 
	C367.188568,164.108826 380.351379,164.012268 393.514221,164.007477 
	C444.180054,163.989059 494.845886,164.000000 545.511719,164.000000 
	C547.336182,164.000000 549.160706,164.000000 551.601807,164.000000 
	C551.601807,262.968658 551.601807,361.686249 551.601807,460.603455 
	C644.630554,460.603455 737.041992,460.603455 829.870117,460.603455 
	C829.870117,361.790344 829.870117,263.205322 829.870117,164.310547 
	C896.206421,164.310547 962.127197,164.310547 1028.417969,164.310547 
	C1028.417969,415.287903 1028.417969,666.343689 1028.417969,918.177734 
	C962.540894,918.177734 896.670776,918.177734 830.133301,918.177734 
	C830.133301,819.888611 830.133301,720.891724 830.133301,621.702148 
	C737.163757,621.702148 644.866821,621.702148 551.949951,621.702148 
	C551.949951,720.283142 551.949951,818.824463 551.949951,917.765503 
	C485.455658,917.765503 419.579529,917.765503 353.404968,917.765503 
	C353.308136,916.504761 353.123108,915.220459 353.123077,913.936218 
	C353.117126,664.607788 353.124298,415.279327 353.351196,165.378632 
	C353.760132,164.618347 353.911591,164.403992 354.025757,164.163254 
z"/>
<path fill="#FFFFFF" opacity="1.000000" stroke="none" 
	d="
M53.292938,580.999756 
	C53.292942,441.896179 53.292942,303.292603 53.292942,164.344681 
	C119.531364,164.344681 185.403488,164.344681 251.577148,164.344681 
	C251.577148,415.382690 251.577148,666.392517 251.577148,917.784668 
	C185.650421,917.784668 119.774620,917.784668 53.292931,917.784668 
	C53.292931,805.674438 53.292931,693.587158 53.292938,580.999756 
z"/>
<path fill="#FFE3D1" opacity="1.000000" stroke="none" 
	d="
M353.762573,164.143555 
	C353.911591,164.403992 353.760132,164.618347 353.405853,164.914246 
	C353.326721,164.722702 353.413055,164.423279 353.762573,164.143555 
z"/>
</svg>